<svg width="41" height="41" viewBox="0 0 41 41" fill="none" xmlns="http://www.w3.org/2000/svg">
<rect width="41" height="41" rx="20.5" fill="white"/>
<rect x="2.5" y="3" width="35" height="35" rx="17.5" fill="white"/>
<rect x="2.5" y="3" width="35" height="35" rx="17.5" stroke="#A0A0A0"/>
<path d="M19.401 26.6607L26.797 19.2647C25.5528 18.7449 24.4227 17.9859 23.471 17.0307C22.5153 16.0788 21.756 14.9484 21.236 13.7037L13.84 21.0997C13.263 21.6767 12.974 21.9657 12.726 22.2837C12.4334 22.6592 12.1823 23.0652 11.977 23.4947C11.804 23.8587 11.675 24.2467 11.417 25.0207L10.055 29.1037C9.99231 29.2907 9.98301 29.4914 10.0281 29.6833C10.0733 29.8753 10.171 30.0508 10.3105 30.1903C10.4499 30.3297 10.6254 30.4274 10.8174 30.4726C11.0093 30.5177 11.21 30.5084 11.397 30.4457L15.48 29.0837C16.255 28.8257 16.642 28.6967 17.006 28.5237C17.4373 28.3184 17.841 28.0687 18.217 27.7747C18.535 27.5267 18.824 27.2377 19.401 26.6607ZM28.849 17.2127C29.5864 16.4753 30.0007 15.4751 30.0007 14.4322C30.0007 13.3893 29.5864 12.3892 28.849 11.6517C28.1116 10.9143 27.1114 10.5 26.0685 10.5C25.0256 10.5 24.0254 10.9143 23.288 11.6517L22.401 12.5387L22.439 12.6497C22.876 13.9005 23.5913 15.0357 24.531 15.9697C25.4929 16.9375 26.6679 17.667 27.962 18.0997L28.849 17.2127Z" fill="#B6B6B6"/>
</svg>
