<?xml version="1.0" standalone="no"?>
<!DOCTYPE svg PUBLIC "-//W3C//DTD SVG 20010904//EN"
 "http://www.w3.org/TR/2001/REC-SVG-20010904/DTD/svg10.dtd">
<svg version="1.0" xmlns="http://www.w3.org/2000/svg"
 width="21.000000pt" height="18.000000pt" viewBox="0 0 21.000000 18.000000"
 preserveAspectRatio="xMidYMid meet">

<g transform="translate(0.000000,18.000000) scale(0.100000,-0.100000)"
fill="#000000" stroke="none">
<path d="M70 166 c-6 -8 -24 -16 -38 -18 -26 -3 -27 -5 -27 -73 l0 -70 98 -3
97 -3 0 76 c0 72 -1 75 -24 75 -13 0 -29 7 -36 15 -16 19 -54 19 -70 1z m61
-46 c22 -12 26 -59 7 -78 -20 -20 -56 -14 -74 13 -15 23 -15 27 0 50 18 27 36
31 67 15z"/>
<path d="M80 95 c-11 -13 -11 -19 3 -32 21 -21 49 -9 45 19 -4 28 -30 35 -48
13z"/>
</g>
</svg>
