<svg width="23" height="21" viewBox="0 0 23 21" fill="none" xmlns="http://www.w3.org/2000/svg">
<path d="M11.1664 7.81641C9.35071 7.81641 7.81641 9.35071 7.81641 11.1664C7.81641 12.9821 9.35071 14.5164 11.1664 14.5164C12.9821 14.5164 14.5164 12.9821 14.5164 11.1664C14.5164 9.35071 12.9821 7.81641 11.1664 7.81641Z" fill="#7D7D7D"/>
<path d="M20.1 3.35H17.2123L14.1895 0.327183C13.9801 0.117753 13.6961 6.32451e-05 13.4 0H8.93333C8.6372 6.32451e-05 8.35322 0.117753 8.14385 0.327183L5.12103 3.35H2.23333C1.00165 3.35 0 4.35165 0 5.58333V17.8667C0 19.0984 1.00165 20.1 2.23333 20.1H20.1C21.3317 20.1 22.3333 19.0984 22.3333 17.8667V5.58333C22.3333 4.35165 21.3317 3.35 20.1 3.35ZM11.1667 16.75C8.1405 16.75 5.58333 14.1928 5.58333 11.1667C5.58333 8.1405 8.1405 5.58333 11.1667 5.58333C14.1928 5.58333 16.75 8.1405 16.75 11.1667C16.75 14.1928 14.1928 16.75 11.1667 16.75Z" fill="#7D7D7D"/>
</svg>
