<svg width="19" height="20" viewBox="0 0 19 20" fill="none" xmlns="http://www.w3.org/2000/svg">
<path d="M19 9.64966C19 14.5691 14.7464 18.5571 9.5 18.5571C8.55903 18.5594 7.62191 18.4285 6.71294 18.1677C6.01944 18.5444 4.427 19.2672 1.748 19.738C1.5105 19.7787 1.33 19.5141 1.42381 19.2774C1.84419 18.2136 2.22419 16.796 2.33819 15.5031C0.8835 13.938 0 11.8893 0 9.64966C0 4.73019 4.25362 0.742188 9.5 0.742188C14.7464 0.742188 19 4.73019 19 9.64966ZM5.9375 9.64966C5.9375 9.31217 5.81239 8.98851 5.58969 8.74987C5.36699 8.51123 5.06494 8.37716 4.75 8.37716C4.43506 8.37716 4.13301 8.51123 3.91031 8.74987C3.68761 8.98851 3.5625 9.31217 3.5625 9.64966C3.5625 9.98715 3.68761 10.3108 3.91031 10.5495C4.13301 10.7881 4.43506 10.9222 4.75 10.9222C5.06494 10.9222 5.36699 10.7881 5.58969 10.5495C5.81239 10.3108 5.9375 9.98715 5.9375 9.64966ZM10.6875 9.64966C10.6875 9.31217 10.5624 8.98851 10.3397 8.74987C10.117 8.51123 9.81494 8.37716 9.5 8.37716C9.18506 8.37716 8.88301 8.51123 8.66031 8.74987C8.43761 8.98851 8.3125 9.31217 8.3125 9.64966C8.3125 9.98715 8.43761 10.3108 8.66031 10.5495C8.88301 10.7881 9.18506 10.9222 9.5 10.9222C9.81494 10.9222 10.117 10.7881 10.3397 10.5495C10.5624 10.3108 10.6875 9.98715 10.6875 9.64966ZM14.25 10.9222C14.5649 10.9222 14.867 10.7881 15.0897 10.5495C15.3124 10.3108 15.4375 9.98715 15.4375 9.64966C15.4375 9.31217 15.3124 8.98851 15.0897 8.74987C14.867 8.51123 14.5649 8.37716 14.25 8.37716C13.9351 8.37716 13.633 8.51123 13.4103 8.74987C13.1876 8.98851 13.0625 9.31217 13.0625 9.64966C13.0625 9.98715 13.1876 10.3108 13.4103 10.5495C13.633 10.7881 13.9351 10.9222 14.25 10.9222Z" fill="black"/>
</svg>
