<svg xmlns="http://www.w3.org/2000/svg"
     width="20" height="20" viewBox="0 0 512 512" preserveAspectRatio="xMidYMid meet" aria-hidden="true">
    <g transform="translate(0,512) scale(0.1,-0.1)" fill="currentColor" stroke="none">
        <path d="M3710 4701 c-30 -10 -75 -28 -100 -40 -60 -31 -2541 -2507 -2564
-2560 -9 -20 -113 -288 -232 -596 -187 -486 -216 -569 -221 -630 -6 -83 6
-133 46 -197 60 -94 189 -157 297 -144 33 4 278 93 651 236 l598 230 1243
1243 c683 683 1256 1263 1272 1288 67 103 92 236 66 357 -28 133 -50 162 -364
474 -301 299 -329 321 -443 347 -68 16 -187 12 -249 -8z m208 -315 c15 -8 138
-126 274 -263 206 -207 248 -255 259 -290 22 -77 4 -111 -140 -256 l-126 -127
-340 340 -340 340 120 120 c65 66 133 126 150 135 38 19 108 19 143 1z m-295
-824 l337 -337 -974 -974 -975 -975 -550 -212 c-303 -116 -551 -210 -551 -208
0 1 95 249 210 551 l211 548 972 973 c535 534 974 972 977 972 3 0 157 -152
343 -338z"/>
    </g>
</svg>
