<svg width="12" height="8" viewBox="0 0 12 8" fill="none" xmlns="http://www.w3.org/2000/svg">
<path d="M6.10826 7.33468L11.3633 1.39447C11.4511 1.29535 11.5 1.16367 11.5 1.02674C11.5 0.8898 11.4511 0.75812 11.3633 0.659004L11.3574 0.652608C11.3149 0.604393 11.2637 0.566 11.2069 0.539764C11.1502 0.513528 11.0891 0.499999 11.0273 0.499999C10.9656 0.499999 10.9045 0.513528 10.8478 0.539764C10.791 0.566 10.7398 0.604393 10.6973 0.652608L5.74901 6.24641L0.802706 0.652609C0.760177 0.604393 0.708986 0.566 0.652246 0.539765C0.595506 0.513529 0.534403 0.5 0.472656 0.5C0.410908 0.5 0.349805 0.513529 0.293065 0.539765C0.236326 0.566 0.185134 0.604394 0.142605 0.652609L0.136667 0.659005C0.0489391 0.758121 -5.77882e-07 0.889801 -5.65911e-07 1.02674C-5.53939e-07 1.16367 0.0489392 1.29535 0.136667 1.39447L5.39174 7.33468C5.43796 7.38692 5.49354 7.42851 5.55512 7.45693C5.61671 7.48535 5.683 7.5 5.75 7.5C5.817 7.5 5.8833 7.48535 5.94488 7.45693C6.00646 7.42851 6.06204 7.38692 6.10826 7.33468Z" fill="black"/>
</svg>
