<?xml version="1.0" standalone="no"?>
<!DOCTYPE svg PUBLIC "-//W3C//DTD SVG 20010904//EN"
 "http://www.w3.org/TR/2001/REC-SVG-20010904/DTD/svg10.dtd">
<svg version="1.0" xmlns="http://www.w3.org/2000/svg"
 width="10.000000pt" height="10.000000pt" viewBox="0 0 9.000000 12.000000"
 preserveAspectRatio="xMidYMid meet">

<g transform="translate(0.000000,12.000000) scale(0.100000,-0.100000)"
fill="#000000" stroke="none">
<path d="M55 100 c-3 -5 -1 -10 4 -10 6 0 12 -17 12 -37 l2 -38 6 40 c4 22 5
43 3 48 -5 10 -20 9 -27 -3z"/>
<path d="M9 62 c-5 -45 5 -62 24 -43 8 8 8 11 0 11 -7 0 -13 17 -15 38 l-3 37
-6 -43z"/>
</g>
</svg>
