<svg width="19" height="20" viewBox="0 0 19 20" fill="none" xmlns="http://www.w3.org/2000/svg">
<path d="M10.7667 1.14752C10.4012 0.884415 9.95678 0.742188 9.5 0.742188C9.04322 0.742188 8.59876 0.884415 8.23333 1.14752L0.844444 6.46752C0.582253 6.6563 0.369446 6.90109 0.222876 7.1825C0.0763063 7.46391 0 7.77422 0 8.08885V17.7155C0 18.253 0.22242 18.7685 0.61833 19.1486C1.01424 19.5287 1.55121 19.7422 2.11111 19.7422H6.22778C6.53572 19.7422 6.83106 19.6248 7.04881 19.4157C7.26656 19.2067 7.38889 18.9231 7.38889 18.6275V13.6622C7.38889 13.1247 7.61131 12.6092 8.00722 12.2291C8.40313 11.849 8.9401 11.6355 9.5 11.6355C10.0599 11.6355 10.5969 11.849 10.9928 12.2291C11.3887 12.6092 11.6111 13.1247 11.6111 13.6622V18.6275C11.6111 18.9231 11.7334 19.2067 11.9512 19.4157C12.1689 19.6248 12.4643 19.7422 12.7722 19.7422H16.8889C17.4488 19.7422 17.9858 19.5287 18.3817 19.1486C18.7776 18.7685 19 18.253 19 17.7155V8.08885C19 7.77422 18.9237 7.46391 18.7771 7.1825C18.6306 6.90109 18.4177 6.6563 18.1556 6.46752L10.7667 1.14752Z" fill="#A0A0A0"/>
</svg>
