<svg width="10" height="10" viewBox="0 0 10 10" fill="none" xmlns="http://www.w3.org/2000/svg">
<path d="M9.97706 0.634761L9.91349 0L9.27783 0.201511C8.18843 0.561483 7.0251 0.671948 5.88236 0.523929C4.68158 0.346706 3.45252 0.50419 2.34387 0.97733C1.75614 1.21534 1.24034 1.58938 0.843439 2.06539C0.446535 2.54141 0.181132 3.10429 0.0713934 3.70277C-0.0708991 4.47591 0.00028555 5.27095 0.277982 6.01008C0.45679 5.62624 0.665735 5.25576 0.903045 4.90176C1.44134 4.14853 2.18722 3.55072 3.05898 3.1738C3.89881 2.80913 4.81678 2.6366 5.73934 2.67003C4.86116 2.79802 4.02055 3.09824 3.27087 3.55164C2.90939 3.76777 2.57831 4.02678 2.2856 4.32242C2.00579 4.61804 1.75903 4.94051 1.5493 5.28463C1.15554 6.00406 0.875318 6.77471 0.717645 7.57179C0.547713 8.37144 0.455507 9.18427 0.442194 10H1.50162C1.55196 9.26848 1.6564 8.54124 1.81415 7.82368C2.5491 8.20111 3.37329 8.3936 4.20846 8.38287C4.9874 8.38236 5.75832 8.23333 6.47564 7.94458C10.5068 6.30731 9.97706 0.861461 9.97706 0.634761Z" fill="#7D7D7D"/>
</svg>
