<svg width="19" height="21" viewBox="0 0 19 21" fill="none" xmlns="http://www.w3.org/2000/svg">
<path d="M18.8973 1.57738L18.7773 0.317383L17.5773 0.717383C15.5207 1.43193 13.3245 1.6512 11.1673 1.35738C8.90042 1.00559 6.5802 1.3182 4.48728 2.25738C3.37776 2.72983 2.40403 3.4723 1.65475 4.41719C0.905474 5.36209 0.404443 6.47939 0.197277 7.66738C-0.0713439 9.20207 0.0630391 10.7802 0.587277 12.2474C0.924832 11.4855 1.31928 10.7501 1.76728 10.0474C2.78348 8.55222 4.19156 7.36556 5.83728 6.61738C7.42272 5.89351 9.15566 5.55103 10.8973 5.61738C9.23945 5.87145 7.65254 6.46739 6.23728 7.36738C5.55488 7.79641 4.92986 8.31054 4.37728 8.89738C3.84905 9.4842 3.38322 10.1243 2.98728 10.8074C2.24394 12.2355 1.71493 13.7652 1.41728 15.3474C1.09648 16.9347 0.922411 18.5482 0.897277 20.1674H2.89728C2.99231 18.7153 3.18946 17.2718 3.48728 15.8474C4.87471 16.5966 6.43063 16.9787 8.00728 16.9574C9.47775 16.9564 10.9331 16.6605 12.2873 16.0874C19.8973 12.8374 18.8973 2.02738 18.8973 1.57738Z" fill="#A0A0A0"/>
</svg>
