<svg width="19" height="20" viewBox="0 0 19 20" fill="none" xmlns="http://www.w3.org/2000/svg">
<path d="M1.58333 19.7422C1.58333 19.7422 0 19.7422 0 18.1589C0 16.5755 1.58333 11.8255 9.5 11.8255C17.4167 11.8255 19 16.5755 19 18.1589C19 19.7422 17.4167 19.7422 17.4167 19.7422H1.58333ZM9.5 10.2422C10.7598 10.2422 11.968 9.74174 12.8588 8.85094C13.7496 7.96015 14.25 6.75197 14.25 5.49219C14.25 4.23241 13.7496 3.02423 12.8588 2.13343C11.968 1.24263 10.7598 0.742188 9.5 0.742188C8.24022 0.742188 7.03204 1.24263 6.14124 2.13343C5.25045 3.02423 4.75 4.23241 4.75 5.49219C4.75 6.75197 5.25045 7.96015 6.14124 8.85094C7.03204 9.74174 8.24022 10.2422 9.5 10.2422Z" fill="#A0A0A0"/>
</svg>
