<svg width="21" height="21" viewBox="0 0 21 21" fill="none" xmlns="http://www.w3.org/2000/svg">
<path d="M19 19L14.8983 14.8983M14.8983 14.8983C15.5999 14.1967 16.1565 13.3638 16.5362 12.4471C16.9159 11.5304 17.1113 10.5479 17.1113 9.55566C17.1113 8.56344 16.9159 7.58093 16.5362 6.66424C16.1565 5.74754 15.5999 4.91461 14.8983 4.213C14.1967 3.51139 13.3638 2.95485 12.4471 2.57514C11.5304 2.19543 10.5479 2 9.55566 2C8.56344 2 7.58093 2.19543 6.66424 2.57514C5.74754 2.95485 4.91461 3.51139 4.213 4.213C2.79604 5.62996 2 7.55178 2 9.55566C2 11.5596 2.79604 13.4814 4.213 14.8983C5.62996 16.3153 7.55178 17.1113 9.55566 17.1113C11.5596 17.1113 13.4814 16.3153 14.8983 14.8983Z" stroke="#A0A0A0" stroke-width="2.5" stroke-linecap="round" stroke-linejoin="round"/>
</svg>
